<svg width="302" height="72" viewBox="0 0 302 72" fill="none" xmlns="http://www.w3.org/2000/svg">
<g filter="url(#filter0_d)">
<path d="M98.104 52.576C95.96 52.576 93.912 52.176 91.96 51.376C90.04 50.544 88.36 49.392 86.92 47.92L89.8 44.56C90.952 45.712 92.264 46.624 93.736 47.296C95.208 47.968 96.696 48.304 98.2 48.304C100.056 48.304 101.512 47.904 102.568 47.104C103.624 46.272 104.152 45.168 104.152 43.792C104.152 42.896 103.944 42.16 103.528 41.584C103.144 40.976 102.616 40.48 101.944 40.096C101.304 39.712 100.36 39.264 99.112 38.752L94.744 36.832C90.488 35.072 88.36 32.336 88.36 28.624C88.36 26.992 88.792 25.52 89.656 24.208C90.552 22.896 91.784 21.872 93.352 21.136C94.92 20.368 96.68 19.984 98.632 19.984C100.456 19.984 102.2 20.336 103.864 21.04C105.528 21.744 106.952 22.704 108.136 23.92L105.592 27.04C103.48 25.184 101.16 24.256 98.632 24.256C97 24.256 95.704 24.624 94.744 25.36C93.784 26.096 93.304 27.088 93.304 28.336C93.304 29.168 93.528 29.872 93.976 30.448C94.456 31.024 95.016 31.488 95.656 31.84C96.328 32.192 97.24 32.608 98.392 33.088L102.76 34.96C104.808 35.792 106.376 36.88 107.464 38.224C108.584 39.536 109.144 41.264 109.144 43.408C109.144 45.104 108.696 46.656 107.8 48.064C106.904 49.44 105.624 50.544 103.96 51.376C102.296 52.176 100.344 52.576 98.104 52.576ZM113.13 20.56H131.706V24.688H118.026V33.52H129.594V37.648H118.026V47.872H132.186V52H113.13V20.56ZM148.756 52.576C146.068 52.576 143.684 51.92 141.604 50.608C139.556 49.264 137.956 47.36 136.804 44.896C135.652 42.4 135.076 39.488 135.076 36.16C135.076 32.832 135.652 29.952 136.804 27.52C137.956 25.088 139.556 23.232 141.604 21.952C143.684 20.64 146.068 19.984 148.756 19.984C151.444 19.984 153.812 20.64 155.86 21.952C157.94 23.232 159.556 25.088 160.708 27.52C161.86 29.952 162.436 32.832 162.436 36.16C162.436 39.488 161.86 42.4 160.708 44.896C159.556 47.36 157.94 49.264 155.86 50.608C153.812 51.92 151.444 52.576 148.756 52.576ZM148.756 48.304C150.484 48.304 152.004 47.808 153.316 46.816C154.628 45.824 155.636 44.416 156.34 42.592C157.044 40.736 157.396 38.592 157.396 36.16C157.396 32.48 156.612 29.584 155.044 27.472C153.476 25.328 151.38 24.256 148.756 24.256C146.132 24.256 144.036 25.328 142.468 27.472C140.9 29.584 140.116 32.48 140.116 36.16C140.116 38.592 140.468 40.736 141.172 42.592C141.876 44.416 142.884 45.824 144.196 46.816C145.508 47.808 147.028 48.304 148.756 48.304ZM164.208 20.368H166.848L170.736 38.752C171.184 41.056 171.888 44.48 172.848 49.024H173.04C173.584 46.496 174.368 43.072 175.392 38.752L180.24 20.368H182.784L187.632 38.752L190.08 49.024H190.272C190.752 46.752 191.184 44.528 191.568 42.352L192.288 38.752L196.176 20.368H198.624L191.664 52H188.784L183.216 30.784L182.976 29.824L181.584 23.68H181.392L180.672 26.608C180.544 27.056 180.368 27.712 180.144 28.576C179.952 29.408 179.792 30.144 179.664 30.784L174.144 52H171.312L164.208 20.368ZM202.725 20.368H205.269V52H202.725V20.368ZM229.995 52L221.643 37.696H215.115V52H212.571V20.368H221.739C225.067 20.368 227.659 21.056 229.515 22.432C231.371 23.776 232.299 25.904 232.299 28.816C232.299 31.28 231.595 33.248 230.187 34.72C228.811 36.192 226.875 37.12 224.379 37.504L232.971 52H229.995ZM221.163 35.584C223.947 35.584 226.059 35.024 227.499 33.904C228.971 32.784 229.707 31.088 229.707 28.816C229.707 26.576 228.987 24.976 227.547 24.016C226.139 23.024 224.011 22.528 221.163 22.528H215.115V35.584H221.163ZM254.371 52L246.019 37.696H239.491V52H236.947V20.368H246.115C249.443 20.368 252.035 21.056 253.891 22.432C255.747 23.776 256.675 25.904 256.675 28.816C256.675 31.28 255.971 33.248 254.563 34.72C253.187 36.192 251.251 37.12 248.755 37.504L257.347 52H254.371ZM245.539 35.584C248.323 35.584 250.435 35.024 251.875 33.904C253.347 32.784 254.083 31.088 254.083 28.816C254.083 26.576 253.363 24.976 251.923 24.016C250.515 23.024 248.387 22.528 245.539 22.528H239.491V35.584H245.539ZM275.438 41.392H263.15L259.55 52H256.958L267.998 20.368H270.638L281.726 52H278.99L275.438 41.392ZM274.766 39.28L272.846 33.568C271.406 29.312 270.254 25.696 269.39 22.72H269.198C268.398 25.6 267.262 29.216 265.79 33.568L263.87 39.28H274.766ZM284.764 20.368H287.308V49.84H301.708V52H284.764V20.368Z" fill="#F5F7FC"/>
</g>
<mask id="mask0" mask-type="alpha" maskUnits="userSpaceOnUse" x="15" y="15" width="40" height="40">
<circle cx="35" cy="35" r="20" fill="#C4C4C4"/>
</mask>
<g mask="url(#mask0)">
<path fill-rule="evenodd" clip-rule="evenodd" d="M49 24H40V66H49V24ZM30 32H39V66H30V32ZM20 41H29V66H20V41Z" fill="#F5F7FC"/>
</g>
<g filter="url(#filter1_d)">
<path fill-rule="evenodd" clip-rule="evenodd" d="M58 35C58 47.7025 47.7025 58 35 58C22.2975 58 12 47.7025 12 35C12 22.2975 22.2975 12 35 12C47.7025 12 58 22.2975 58 35ZM54.192 64.2736C48.6811 67.8939 42.0865 70 35 70C15.67 70 0 54.33 0 35C0 15.67 15.67 0 35 0C54.33 0 70 15.67 70 35C70 42.0529 67.9139 48.6186 64.325 54.1136L68.5 65.5L54.192 64.2736Z" fill="#D81C5B"/>
</g>
<defs>
<filter id="filter0_d" x="86.92" y="19.984" width="214.788" height="34.592" filterUnits="userSpaceOnUse" color-interpolation-filters="sRGB">
<feFlood flood-opacity="0" result="BackgroundImageFix"/>
<feColorMatrix in="SourceAlpha" type="matrix" values="0 0 0 0 0 0 0 0 0 0 0 0 0 0 0 0 0 0 127 0"/>
<feOffset dy="2"/>
<feColorMatrix type="matrix" values="0 0 0 0 0 0 0 0 0 0 0 0 0 0 0 0 0 0 0.3 0"/>
<feBlend mode="normal" in2="BackgroundImageFix" result="effect1_dropShadow"/>
<feBlend mode="normal" in="SourceGraphic" in2="effect1_dropShadow" result="shape"/>
</filter>
<filter id="filter1_d" x="0" y="0" width="70" height="72" filterUnits="userSpaceOnUse" color-interpolation-filters="sRGB">
<feFlood flood-opacity="0" result="BackgroundImageFix"/>
<feColorMatrix in="SourceAlpha" type="matrix" values="0 0 0 0 0 0 0 0 0 0 0 0 0 0 0 0 0 0 127 0"/>
<feOffset dy="2"/>
<feColorMatrix type="matrix" values="0 0 0 0 0 0 0 0 0 0 0 0 0 0 0 0 0 0 0.3 0"/>
<feBlend mode="normal" in2="BackgroundImageFix" result="effect1_dropShadow"/>
<feBlend mode="normal" in="SourceGraphic" in2="effect1_dropShadow" result="shape"/>
</filter>
</defs>
</svg>
